<svg width="204" height="49" viewBox="0 0 204 49" fill="none" xmlns="http://www.w3.org/2000/svg">
<path d="M61.2828 35.0447H75.5669V30.7422H66.3597V14.5364H61.2828V35.0447Z" fill="#2B253A"/>
<path d="M84.0297 32.1764C81.9932 32.1764 80.9319 30.3981 80.9319 27.7306C80.9319 25.0631 81.9932 23.2561 84.0297 23.2561C86.0661 23.2561 87.1561 25.0631 87.1561 27.7306C87.1561 30.3981 86.0661 32.1764 84.0297 32.1764ZM84.0583 35.5037C88.791 35.5037 91.8888 32.1478 91.8888 27.7306C91.8888 23.3134 88.791 19.9575 84.0583 19.9575C79.3543 19.9575 76.1992 23.3134 76.1992 27.7306C76.1992 32.1478 79.3543 35.5037 84.0583 35.5037Z" fill="#2B253A"/>
<path d="M100.081 40.1217C102.261 40.1217 104.182 39.6341 105.473 38.4868C106.649 37.4255 107.424 35.8193 107.424 33.6107V20.3592H102.949V21.9368H102.892C102.031 20.7034 100.712 19.929 98.7613 19.929C95.1186 19.929 92.5945 22.9693 92.5945 27.2718C92.5945 31.775 95.6636 34.2417 98.9621 34.2417C100.74 34.2417 101.859 33.5247 102.72 32.5494H102.834V34.0123C102.834 35.7906 102.002 36.8232 100.023 36.8232C98.4745 36.8232 97.7 36.1635 97.4419 35.3891H92.91C93.3689 38.4581 96.0364 40.1217 100.081 40.1217ZM100.052 30.7711C98.3024 30.7711 97.1551 29.337 97.1551 27.1284C97.1551 24.8911 98.3024 23.457 100.052 23.457C102.002 23.457 103.035 25.1206 103.035 27.0997C103.035 29.1649 102.089 30.7711 100.052 30.7711Z" fill="#2B253A"/>
<path d="M116.624 32.1764C114.588 32.1764 113.526 30.3981 113.526 27.7306C113.526 25.0631 114.588 23.2561 116.624 23.2561C118.66 23.2561 119.75 25.0631 119.75 27.7306C119.75 30.3981 118.66 32.1764 116.624 32.1764ZM116.653 35.5037C121.385 35.5037 124.483 32.1478 124.483 27.7306C124.483 23.3134 121.385 19.9575 116.653 19.9575C111.949 19.9575 108.794 23.3134 108.794 27.7306C108.794 32.1478 111.949 35.5037 116.653 35.5037Z" fill="#2B253A"/>
<path d="M125.849 35.0447H130.524V20.359H125.849V35.0447ZM125.849 18.3225H130.524V14.5364H125.849V18.3225Z" fill="#2B253A"/>
<path d="M132.552 39.8923H137.227V33.5247H137.285C138.203 34.758 139.551 35.5038 141.444 35.5038C145.287 35.5038 147.84 32.4634 147.84 27.702C147.84 23.2849 145.459 19.929 141.559 19.929C139.551 19.929 138.117 20.8181 137.113 22.1375H137.027V20.3592H132.552V39.8923ZM140.239 31.8897C138.231 31.8897 137.084 30.2548 137.084 27.8741C137.084 25.4934 138.117 23.6864 140.153 23.6864C142.161 23.6864 143.107 25.35 143.107 27.8741C143.107 30.3695 142.017 31.8897 140.239 31.8897Z" fill="#2B253A"/>
<path d="M155.452 35.5038C159.295 35.5038 162.135 33.8402 162.135 30.6277C162.135 26.8702 159.095 26.2105 156.513 25.7803C154.649 25.4361 152.985 25.2927 152.985 24.2601C152.985 23.3422 153.874 22.912 155.022 22.912C156.312 22.912 157.202 23.3135 157.374 24.633H161.676C161.447 21.736 159.209 19.929 155.05 19.929C151.58 19.929 148.711 21.5352 148.711 24.633C148.711 28.0749 151.436 28.7633 153.989 29.1935C155.939 29.5377 157.718 29.6812 157.718 31.0006C157.718 31.9471 156.829 32.4634 155.423 32.4634C153.874 32.4634 152.899 31.7463 152.727 30.2835H148.31C148.453 33.5247 151.149 35.5038 155.452 35.5038Z" fill="#2B253A"/>
<path d="M168.486 35.475C170.522 35.475 171.813 34.6719 172.874 33.2378H172.96V35.0448H177.435V20.3591H172.76V28.5624C172.76 30.3121 171.784 31.5168 170.178 31.5168C168.687 31.5168 167.97 30.6276 167.97 29.0214V20.3591H163.323V29.9966C163.323 33.2664 165.101 35.475 168.486 35.475Z" fill="#2B253A"/>
<path d="M179.469 35.0449H184.144V26.8129C184.144 25.0632 185.005 23.8298 186.468 23.8298C187.873 23.8298 188.533 24.7477 188.533 26.3252V35.0449H193.208V26.8129C193.208 25.0632 194.04 23.8298 195.531 23.8298C196.937 23.8298 197.597 24.7477 197.597 26.3252V35.0449H202.272V25.4934C202.272 22.1949 200.608 19.929 197.281 19.929C195.388 19.929 193.81 20.7321 192.663 22.5104H192.606C191.86 20.9329 190.397 19.929 188.475 19.929C186.353 19.929 184.947 20.9329 184.03 22.4531H183.944V20.3592H179.469V35.0449Z" fill="#2B253A"/>
<path fill-rule="evenodd" clip-rule="evenodd" d="M24.0235 48.1911C37.2246 48.1911 47.9259 37.4896 47.9259 24.2886C47.9259 11.0877 37.2246 0.38623 24.0235 0.38623C10.8226 0.38623 0.121094 11.0877 0.121094 24.2886C0.121094 37.4896 10.8226 48.1911 24.0235 48.1911ZM27.7128 18.8539C29.7503 16.8164 29.7503 13.5129 27.7128 11.4754C25.6753 9.43782 22.3718 9.43782 20.3343 11.4754C18.2968 13.5129 18.2968 16.8164 20.3343 18.8539L24.0235 22.5431L27.7128 18.8539ZM29.4583 27.978C31.4959 30.0155 34.7993 30.0155 36.8369 27.978C38.8743 25.9404 38.8743 22.637 36.8369 20.5994C34.7993 18.562 31.4959 18.562 29.4583 20.5994L25.7691 24.2887L29.4583 27.978ZM27.7128 37.102C29.7503 35.0644 29.7503 31.761 27.7128 29.7234L24.0235 26.0342L20.3343 29.7234C18.2968 31.761 18.2968 35.0644 20.3343 37.102C22.3718 39.1396 25.6753 39.1396 27.7128 37.102ZM11.2102 27.978C9.1727 25.9404 9.1727 22.637 11.2102 20.5994C13.2478 18.562 16.5512 18.562 18.5888 20.5994L22.278 24.2887L18.5888 27.978C16.5512 30.0155 13.2478 30.0155 11.2102 27.978Z" fill="#7F57F1"/>
</svg>
